<svg width="69" height="23" viewBox="0 0 69 23" fill="none" xmlns="http://www.w3.org/2000/svg">
<circle cx="3.25342" cy="11.7534" r="1.75342" fill="#040015"/>
<circle cx="65.2534" cy="11.7534" r="1.75342" fill="#040015"/>
<path d="M16.3348 2L19.6976 11.582C20.4755 13.7986 19.1258 16.2035 16.835 16.7238C15.1011 17.1176 13.3054 16.2862 12.5 14.7009" stroke="#040015" stroke-width="1.86301" stroke-linecap="round"/>
<path d="M27.6626 11C30.1626 11.9997 33.1626 11.9997 34.6626 11.9997C36.1626 11.9997 39.1912 12.1551 43.6835 11.6291C45.1747 11.4545 46.7606 11.1483 48.214 10.8171C50.1998 10.3645 50.4458 7.78959 48.6366 6.8543C48.0048 6.52769 47.2571 6.51323 46.6132 6.81517L46.1693 7.02328C43.7246 8.1696 43.6317 11.6127 46.0153 12.8812C46.6424 13.2149 47.207 13.5142 47.6345 13.7388C49.71 14.8292 51.1347 15.7059 55.9566 16.6922" stroke="#040015" stroke-width="1.86301" stroke-linecap="round"/>
</svg>
