<svg width="32" height="32" viewBox="0 0 32 32" fill="none" xmlns="http://www.w3.org/2000/svg">
<circle cx="2.84227" cy="11.1005" r="1.80999" fill="#040015"/>
<circle cx="27.6164" cy="11.1005" r="1.80999" fill="#040015"/>
<path d="M16.3456 1.03223L19.8168 10.9233C20.6198 13.2114 19.2266 15.6939 16.862 16.231C15.0721 16.6375 13.2184 15.7793 12.3871 14.1429" stroke="#040015" stroke-width="1.92311" stroke-linecap="round"/>
<path d="M2.55551 20.917C4.99291 22.2526 8.06708 22.6259 9.60417 22.8126C11.1413 22.9993 14.2254 23.5353 18.8942 23.5554C20.4441 23.5621 22.1073 23.4457 23.6379 23.2872C25.7291 23.0706 26.3016 20.4626 24.564 19.279C23.9573 18.8657 23.1929 18.7578 22.4955 18.9871L21.844 19.2012C19.0849 20.1082 18.3517 23.6781 20.6331 25.4753C21.1456 25.879 21.6173 26.2356 22 26.5C23.9911 27.8756 26.0224 28.6603 30.8408 30.2711" stroke="#040015" stroke-width="1.92311" stroke-linecap="round"/>
</svg>
