<svg xmlns="http://www.w3.org/2000/svg" version="1.1" xmlns:xlink="http://www.w3.org/1999/xlink" width="512" height="512"><svg xmlns="http://www.w3.org/2000/svg" version="1.1" xmlns:xlink="http://www.w3.org/1999/xlink" width="512" height="512"><svg width="512" height="512" viewBox="0 0 512 512" fill="none" xmlns="http://www.w3.org/2000/svg">
<g clip-path="url(#clip0_1359_326)">
<rect width="512" height="512" rx="26.5974" fill="white"></rect>
<circle cx="114.369" cy="239.377" r="21.0672" fill="#160B2E" stroke="#160B2E" stroke-width="0.421428"></circle>
<circle cx="377.683" cy="215.439" r="21.0672" fill="#160B2E" stroke="#160B2E" stroke-width="0.421428"></circle>
<path d="M198.151 -35.9071L302.55 197.374C314.243 223.503 299.107 253.798 271.192 260.138C250.923 264.742 230.118 254.98 220.704 236.449L220.093 235.248" stroke="#160B2E" stroke-width="22.6078" stroke-linecap="round"></path>
<path d="M-3.32463 319.169L64.2278 325.205C147.896 332.681 229.437 357.084 312.995 365.706C319.624 366.39 325.954 366.775 331.803 366.775C350.011 366.775 370.158 363.415 388.638 359.055C413.715 353.137 415.824 321.196 392.936 309.364C384.622 305.066 374.782 304.875 366.308 308.849L362.015 310.862C332.382 324.756 331.297 366.505 360.167 381.921L376.412 390.595C378.633 391.781 380.943 392.794 383.32 393.625L541.257 448.832" stroke="#160B2E" stroke-width="22.6078" stroke-linecap="round"></path>
</g>
<defs>
<clipPath id="clip0_1359_326">
<rect width="512" height="512" rx="26.5974" fill="white"></rect>
</clipPath>
</defs>
</svg></svg><style>@media (prefers-color-scheme: light) { :root { filter: none; } }
@media (prefers-color-scheme: dark) { :root { filter: none; } }
</style></svg>